<?xml version="1.0" standalone="no"?>
<!DOCTYPE svg PUBLIC "-//W3C//DTD SVG 20010904//EN"
 "http://www.w3.org/TR/2001/REC-SVG-20010904/DTD/svg10.dtd">
<svg version="1.0" xmlns="http://www.w3.org/2000/svg"
 width="260.000000pt" height="260.000000pt" viewBox="0 0 260.000000 260.000000"
 preserveAspectRatio="xMidYMid meet">
<metadata>
Created by potrace 1.11, written by Peter Selinger 2001-2013
</metadata>
<g transform="translate(0.000000,260.000000) scale(0.100000,-0.100000)"
fill="#000000" stroke="none">
<path d="M1085 2590 c-11 -4 -23 -6 -28 -3 -4 2 -31 0 -60 -6 -28 -6 -63 -13
-77 -15 -71 -14 -92 -19 -173 -47 -373 -124 -646 -384 -723 -689 -31 -126 -25
-298 16 -414 93 -263 312 -476 620 -603 96 -40 272 -88 338 -92 9 -1 12 -80
12 -360 l0 -359 215 0 c118 1 216 4 216 7 1 3 3 236 3 516 l2 510 46 5 45 6
-1 -91 c-1 -49 1 -97 5 -105 4 -8 15 -42 24 -75 24 -84 65 -138 125 -170 19
-10 92 -13 288 -13 145 0 266 -2 268 -5 11 -11 12 -48 1 -52 -7 -3 -140 -6
-297 -7 l-285 -3 0 -197 0 -198 25 -1 c14 -1 84 -1 155 -1 133 1 165 -3 165
-18 0 -5 14 -31 31 -59 l32 -51 197 0 197 0 -2 81 c-1 70 2 82 18 91 36 19 79
63 98 100 18 35 19 67 17 603 -1 441 -4 569 -13 579 -8 8 -36 12 -70 11 l-57
-1 7 40 c10 59 14 87 16 121 2 42 -10 165 -20 195 -5 14 -15 45 -22 70 -20 67
-60 140 -136 250 -50 71 -258 250 -291 250 -6 0 -12 3 -14 8 -5 11 -144 78
-221 107 -82 30 -196 61 -257 69 -25 3 -70 10 -99 15 -67 11 -308 11 -336 1z
m818 -577 c-7 -2 -19 -2 -25 0 -7 3 -2 5 12 5 14 0 19 -2 13 -5z m355 -344
c-3 -8 -7 -3 -11 10 -4 17 -3 21 5 13 5 -5 8 -16 6 -23z m13 -46 c3 -71 -2
-148 -10 -156 -5 -5 -8 35 -7 87 0 53 4 96 9 96 4 0 7 -12 8 -27z"/>
</g>
</svg>
